<svg width="44" height="44" viewBox="0 0 44 44" fill="none" xmlns="http://www.w3.org/2000/svg">
<path d="M44 5.2082C42.3805 6.09324 40.6409 6.68882 38.815 6.95745C40.6798 5.58304 42.1098 3.40688 42.7833 0.812155C41.0403 2.08453 39.1077 3.00913 37.05 3.50892C35.4034 1.34942 33.058 0 30.4621 0C25.4767 0 21.4356 4.97496 21.4356 11.1078C21.4356 11.9782 21.5169 12.8279 21.6692 13.6379C14.1675 13.1756 7.51694 8.75252 3.06296 2.03038C2.28791 3.67135 1.84285 5.57887 1.84285 7.61759C1.84285 11.4701 3.43525 14.8707 5.85685 16.8616C4.37783 16.8033 2.98512 16.3035 1.76839 15.4726C1.76839 15.5205 1.76839 15.5642 1.76839 15.6121C1.76839 20.9952 4.87874 25.485 9.0095 26.5033C8.25307 26.7573 7.45433 26.8927 6.63021 26.8927C6.04977 26.8927 5.48287 26.8219 4.93289 26.6949C6.08192 31.1076 9.41564 34.3208 13.3653 34.4103C10.277 37.3903 6.38483 39.1666 2.15423 39.1666C1.42656 39.1666 0.707357 39.1146 0 39.0105C3.99538 42.1612 8.73874 44 13.8375 44C30.4418 44 39.5189 27.0739 39.5189 12.3947C39.5189 11.9137 39.5105 11.4347 39.4936 10.9578C41.2586 9.38975 42.79 7.43433 44 5.2082Z" fill="white"/>
</svg>
