<svg width="20" height="21" viewBox="0 0 20 21" fill="none" xmlns="http://www.w3.org/2000/svg">
<path d="M10 21C8.6 21 7.29167 20.7244 6.075 20.1731C4.85833 19.6219 3.8 18.8738 2.9 17.9287C2 16.9837 1.29167 15.8681 0.775 14.5819C0.258333 13.2956 0 11.9175 0 10.4475C0 8.9775 0.258333 7.60813 0.775 6.33938C1.29167 5.07063 2 3.96375 2.9 3.01875C3.8 2.07375 4.85833 1.33438 6.075 0.800625C7.29167 0.266875 8.6 0 10 0C11.4 0 12.7083 0.266875 13.925 0.800625C15.1417 1.33438 16.2 2.07375 17.1 3.01875C18 3.96375 18.7083 5.07063 19.225 6.33938C19.7417 7.60813 20 8.9775 20 10.4475C20 11.9175 19.7417 13.2956 19.225 14.5819C18.7083 15.8681 18 16.9837 17.1 17.9287C16.2 18.8738 15.1417 19.6219 13.925 20.1731C12.7083 20.7244 11.4 21 10 21ZM10 19.4775C10.5833 18.8475 11.0708 18.1256 11.4625 17.3119C11.8542 16.4981 12.175 15.5312 12.425 14.4113H7.6C7.83333 15.4612 8.14583 16.4062 8.5375 17.2462C8.92917 18.0862 9.41667 18.83 10 19.4775ZM7.875 19.1625C7.45833 18.4975 7.1 17.78 6.8 17.01C6.5 16.24 6.25 15.3737 6.05 14.4113H2.3C2.93333 15.6537 3.66667 16.6294 4.5 17.3381C5.33333 18.0469 6.45833 18.655 7.875 19.1625ZM12.15 19.1362C13.35 18.7337 14.4292 18.13 15.3875 17.325C16.3458 16.52 17.1167 15.5487 17.7 14.4113H13.975C13.7583 15.3562 13.5042 16.2137 13.2125 16.9837C12.9208 17.7537 12.5667 18.4712 12.15 19.1362ZM1.8 12.8362H5.775C5.725 12.3637 5.69583 11.9394 5.6875 11.5631C5.67917 11.1869 5.675 10.815 5.675 10.4475C5.675 10.01 5.68333 9.62062 5.7 9.27937C5.71667 8.93812 5.75 8.5575 5.8 8.1375H1.8C1.68333 8.5575 1.60417 8.93375 1.5625 9.26625C1.52083 9.59875 1.5 9.9925 1.5 10.4475C1.5 10.9025 1.52083 11.3094 1.5625 11.6681C1.60417 12.0269 1.68333 12.4163 1.8 12.8362ZM7.325 12.8362H12.7C12.7667 12.2937 12.8083 11.8519 12.825 11.5106C12.8417 11.1694 12.85 10.815 12.85 10.4475C12.85 10.0975 12.8417 9.76062 12.825 9.43687C12.8083 9.11312 12.7667 8.68 12.7 8.1375H7.325C7.25833 8.68 7.21667 9.11312 7.2 9.43687C7.18333 9.76062 7.175 10.0975 7.175 10.4475C7.175 10.815 7.18333 11.1694 7.2 11.5106C7.21667 11.8519 7.25833 12.2937 7.325 12.8362ZM14.2 12.8362H18.2C18.3167 12.4163 18.3958 12.0269 18.4375 11.6681C18.4792 11.3094 18.5 10.9025 18.5 10.4475C18.5 9.9925 18.4792 9.59875 18.4375 9.26625C18.3958 8.93375 18.3167 8.5575 18.2 8.1375H14.225C14.275 8.75 14.3083 9.21812 14.325 9.54187C14.3417 9.86562 14.35 10.1675 14.35 10.4475C14.35 10.8325 14.3375 11.1956 14.3125 11.5369C14.2875 11.8781 14.25 12.3112 14.2 12.8362ZM13.95 6.5625H17.7C17.15 5.355 16.3958 4.34875 15.4375 3.54375C14.4792 2.73875 13.375 2.17 12.125 1.8375C12.5417 2.485 12.8958 3.185 13.1875 3.9375C13.4792 4.69 13.7333 5.565 13.95 6.5625ZM7.6 6.5625H12.45C12.2667 5.635 11.9583 4.73812 11.525 3.87187C11.0917 3.00562 10.5833 2.24 10 1.575C9.46667 2.0475 9.01667 2.66875 8.65 3.43875C8.28333 4.20875 7.93333 5.25 7.6 6.5625ZM2.3 6.5625H6.075C6.25833 5.6175 6.49167 4.77312 6.775 4.02938C7.05833 3.28562 7.41667 2.56375 7.85 1.86375C6.6 2.19625 5.50833 2.75625 4.575 3.54375C3.64167 4.33125 2.88333 5.3375 2.3 6.5625Z" fill="white"/>
</svg>
